<svg width="236" height="47" viewBox="0 0 236 47" fill="none" xmlns="http://www.w3.org/2000/svg">
<path d="M17.5637 0L0 14.6644L17.9284 46.8907L35.6752 14.4832L17.5637 0ZM17.8679 26.0104L11.8922 15.265L17.7468 10.3802L23.7873 15.2079L17.8679 26.0104Z" fill="white"/>
<path d="M53.5794 31.7212C51.0514 31.7212 48.9554 30.8892 47.2914 29.2252C45.6274 27.5452 44.7954 25.4732 44.7954 23.0092C44.7954 20.5452 45.6274 18.4812 47.2914 16.8172C48.9554 15.1372 51.0514 14.2972 53.5794 14.2972C55.0994 14.2972 56.4994 14.6572 57.7794 15.3772C59.0754 16.0972 60.0834 17.0732 60.8034 18.3052L58.4034 19.6972C57.9554 18.8652 57.2994 18.2092 56.4354 17.7292C55.5874 17.2332 54.6354 16.9852 53.5794 16.9852C51.7874 16.9852 50.3314 17.5532 49.2114 18.6892C48.1074 19.8252 47.5554 21.2652 47.5554 23.0092C47.5554 24.7532 48.1074 26.1932 49.2114 27.3292C50.3314 28.4652 51.7874 29.0332 53.5794 29.0332C54.6354 29.0332 55.5954 28.7932 56.4594 28.3132C57.3234 27.8172 57.9714 27.1532 58.4034 26.3212L60.8034 27.6892C60.0994 28.9212 59.0994 29.9052 57.8034 30.6412C56.5234 31.3612 55.1154 31.7212 53.5794 31.7212ZM65.2296 21.4252C65.8856 19.9372 67.1176 19.1932 68.9256 19.1932V22.0012C67.9336 21.9372 67.0696 22.1772 66.3336 22.7212C65.5976 23.2492 65.2296 24.1292 65.2296 25.3612V31.4092H62.6376V19.4092H65.2296V21.4252ZM78.7551 19.4092H81.5151L76.9071 31.7932C75.7551 34.8972 73.8031 36.3692 71.0511 36.2092V33.7852C71.8671 33.8332 72.5231 33.6572 73.0191 33.2572C73.5151 32.8732 73.9231 32.2652 74.2431 31.4332L74.3631 31.1932L69.2751 19.4092H72.1071L75.6831 28.1212L78.7551 19.4092ZM84.3293 22.7212C84.3293 23.1212 84.5453 23.4412 84.9773 23.6812C85.4253 23.9052 85.9613 24.1052 86.5853 24.2812C87.2253 24.4412 87.8653 24.6332 88.5053 24.8572C89.1453 25.0812 89.6813 25.4652 90.1133 26.0092C90.5613 26.5372 90.7853 27.2092 90.7853 28.0252C90.7853 29.1772 90.3373 30.0812 89.4413 30.7372C88.5613 31.3932 87.4493 31.7212 86.1053 31.7212C84.9213 31.7212 83.9053 31.4732 83.0573 30.9772C82.2093 30.4812 81.5933 29.7932 81.2093 28.9132L83.4413 27.6172C83.8573 28.7692 84.7453 29.3452 86.1053 29.3452C87.4653 29.3452 88.1453 28.8972 88.1453 28.0012C88.1453 27.6172 87.9213 27.3052 87.4733 27.0652C87.0413 26.8252 86.5053 26.6252 85.8653 26.4652C85.2413 26.2892 84.6093 26.0892 83.9693 25.8652C83.3293 25.6412 82.7853 25.2732 82.3373 24.7612C81.9053 24.2332 81.6893 23.5692 81.6893 22.7692C81.6893 21.6652 82.1053 20.7772 82.9373 20.1052C83.7853 19.4332 84.8333 19.0972 86.0813 19.0972C87.0733 19.0972 87.9533 19.3212 88.7213 19.7692C89.5053 20.2012 90.1053 20.8092 90.5213 21.5932L88.3373 22.8172C87.9213 21.9052 87.1693 21.4492 86.0813 21.4492C85.5853 21.4492 85.1693 21.5612 84.8333 21.7852C84.4973 21.9932 84.3293 22.3052 84.3293 22.7212ZM98.883 21.9052H95.907V27.6652C95.907 28.1612 96.019 28.5212 96.243 28.7452C96.467 28.9532 96.795 29.0732 97.227 29.1052C97.675 29.1212 98.227 29.1132 98.883 29.0812V31.4092C96.899 31.6492 95.475 31.4812 94.611 30.9052C93.747 30.3132 93.315 29.2332 93.315 27.6652V21.9052H91.107V19.4092H93.315V16.8172L95.907 16.0492V19.4092H98.883V21.9052ZM109.838 19.4092H112.43V31.4092H109.838V29.6812C108.862 31.0412 107.462 31.7212 105.638 31.7212C103.99 31.7212 102.582 31.1132 101.414 29.8972C100.246 28.6652 99.6617 27.1692 99.6617 25.4092C99.6617 23.6332 100.246 22.1372 101.414 20.9212C102.582 19.7052 103.99 19.0972 105.638 19.0972C107.462 19.0972 108.862 19.7692 109.838 21.1132V19.4092ZM103.334 28.1692C104.054 28.8892 104.958 29.2492 106.046 29.2492C107.134 29.2492 108.038 28.8892 108.758 28.1692C109.478 27.4332 109.838 26.5132 109.838 25.4092C109.838 24.3052 109.478 23.3932 108.758 22.6732C108.038 21.9372 107.134 21.5692 106.046 21.5692C104.958 21.5692 104.054 21.9372 103.334 22.6732C102.614 23.3932 102.254 24.3052 102.254 25.4092C102.254 26.5132 102.614 27.4332 103.334 28.1692ZM115.043 31.4092V13.8892H117.635V31.4092H115.043Z" fill="white"/>
<path d="M137.94 14.6092V31.4092H136.26V17.1532L130.38 26.9932H130.14L124.26 17.1532V31.4092H122.58V14.6092H124.668L130.26 23.9692L135.852 14.6092H137.94ZM146.671 19.1212C148.447 19.1212 149.879 19.7532 150.967 21.0172C152.071 22.2652 152.623 23.7452 152.623 25.4572C152.623 25.6332 152.607 25.8812 152.575 26.2012H142.039C142.199 27.4172 142.711 28.3852 143.575 29.1052C144.455 29.8092 145.535 30.1612 146.815 30.1612C147.727 30.1612 148.511 29.9772 149.167 29.6092C149.839 29.2252 150.343 28.7292 150.679 28.1212L152.071 28.9372C151.543 29.7852 150.823 30.4572 149.911 30.9532C148.999 31.4492 147.959 31.6972 146.791 31.6972C144.903 31.6972 143.367 31.1052 142.183 29.9212C140.999 28.7372 140.407 27.2332 140.407 25.4092C140.407 23.6172 140.991 22.1212 142.159 20.9212C143.327 19.7212 144.831 19.1212 146.671 19.1212ZM146.671 20.6572C145.423 20.6572 144.375 21.0332 143.527 21.7852C142.695 22.5212 142.199 23.4812 142.039 24.6652H150.991C150.831 23.4012 150.343 22.4172 149.527 21.7132C148.711 21.0092 147.759 20.6572 146.671 20.6572ZM165.055 14.6092H166.639V31.4092H165.055V29.0572C163.951 30.8172 162.335 31.6972 160.207 31.6972C158.495 31.6972 157.031 31.0892 155.815 29.8732C154.615 28.6572 154.015 27.1692 154.015 25.4092C154.015 23.6492 154.615 22.1612 155.815 20.9452C157.031 19.7292 158.495 19.1212 160.207 19.1212C162.335 19.1212 163.951 20.0012 165.055 21.7612V14.6092ZM156.967 28.7932C157.879 29.7052 158.999 30.1612 160.327 30.1612C161.655 30.1612 162.775 29.7052 163.687 28.7932C164.599 27.8652 165.055 26.7372 165.055 25.4092C165.055 24.0812 164.599 22.9612 163.687 22.0492C162.775 21.1212 161.655 20.6572 160.327 20.6572C158.999 20.6572 157.879 21.1212 156.967 22.0492C156.055 22.9612 155.599 24.0812 155.599 25.4092C155.599 26.7372 156.055 27.8652 156.967 28.7932ZM171.193 16.5292C170.969 16.7532 170.697 16.8652 170.377 16.8652C170.057 16.8652 169.785 16.7532 169.561 16.5292C169.337 16.3052 169.225 16.0332 169.225 15.7132C169.225 15.3932 169.337 15.1212 169.561 14.8972C169.785 14.6732 170.057 14.5612 170.377 14.5612C170.697 14.5612 170.969 14.6732 171.193 14.8972C171.417 15.1212 171.529 15.3932 171.529 15.7132C171.529 16.0332 171.417 16.3052 171.193 16.5292ZM169.585 31.4092V19.4092H171.169V31.4092H169.585ZM184.442 19.4092H186.026V31.4092H184.442V29.0572C183.338 30.8172 181.722 31.6972 179.594 31.6972C177.882 31.6972 176.418 31.0892 175.202 29.8732C174.002 28.6572 173.402 27.1692 173.402 25.4092C173.402 23.6492 174.002 22.1612 175.202 20.9452C176.418 19.7292 177.882 19.1212 179.594 19.1212C181.722 19.1212 183.338 20.0012 184.442 21.7612V19.4092ZM176.354 28.7932C177.266 29.7052 178.386 30.1612 179.714 30.1612C181.042 30.1612 182.162 29.7052 183.074 28.7932C183.986 27.8652 184.442 26.7372 184.442 25.4092C184.442 24.0812 183.986 22.9612 183.074 22.0492C182.162 21.1212 181.042 20.6572 179.714 20.6572C178.386 20.6572 177.266 21.1212 176.354 22.0492C175.442 22.9612 174.986 24.0812 174.986 25.4092C174.986 26.7372 175.442 27.8652 176.354 28.7932ZM195.332 20.9452H191.876V28.2172C191.876 28.8732 192.004 29.3452 192.26 29.6332C192.516 29.9052 192.9 30.0492 193.412 30.0652C193.924 30.0652 194.564 30.0492 195.332 30.0172V31.4092C193.652 31.6652 192.388 31.5452 191.54 31.0492C190.708 30.5532 190.292 29.6092 190.292 28.2172V20.9452H187.772V19.4092H190.292V16.5292L191.876 16.0492V19.4092H195.332V20.9452ZM202.381 19.1212C204.157 19.1212 205.589 19.7532 206.677 21.0172C207.781 22.2652 208.333 23.7452 208.333 25.4572C208.333 25.6332 208.317 25.8812 208.285 26.2012H197.749C197.909 27.4172 198.421 28.3852 199.285 29.1052C200.165 29.8092 201.245 30.1612 202.525 30.1612C203.437 30.1612 204.221 29.9772 204.877 29.6092C205.549 29.2252 206.053 28.7292 206.389 28.1212L207.781 28.9372C207.253 29.7852 206.533 30.4572 205.621 30.9532C204.709 31.4492 203.669 31.6972 202.501 31.6972C200.613 31.6972 199.077 31.1052 197.893 29.9212C196.709 28.7372 196.117 27.2332 196.117 25.4092C196.117 23.6172 196.701 22.1212 197.869 20.9212C199.037 19.7212 200.541 19.1212 202.381 19.1212ZM202.381 20.6572C201.133 20.6572 200.085 21.0332 199.237 21.7852C198.405 22.5212 197.909 23.4812 197.749 24.6652H206.701C206.541 23.4012 206.053 22.4172 205.237 21.7132C204.421 21.0092 203.469 20.6572 202.381 20.6572ZM216.037 31.6972C214.229 31.6972 212.725 31.0972 211.525 29.8972C210.325 28.6812 209.725 27.1852 209.725 25.4092C209.725 23.6332 210.325 22.1452 211.525 20.9452C212.725 19.7292 214.229 19.1212 216.037 19.1212C217.221 19.1212 218.285 19.4092 219.229 19.9852C220.173 20.5452 220.861 21.3052 221.293 22.2652L219.997 23.0092C219.677 22.2892 219.157 21.7212 218.437 21.3052C217.733 20.8732 216.933 20.6572 216.037 20.6572C214.709 20.6572 213.589 21.1212 212.677 22.0492C211.765 22.9612 211.309 24.0812 211.309 25.4092C211.309 26.7372 211.765 27.8652 212.677 28.7932C213.589 29.7052 214.709 30.1612 216.037 30.1612C216.933 30.1612 217.733 29.9532 218.437 29.5372C219.141 29.1052 219.693 28.5292 220.093 27.8092L221.413 28.5772C220.917 29.5372 220.189 30.2972 219.229 30.8572C218.269 31.4172 217.205 31.6972 216.037 31.6972ZM228.895 19.1212C230.351 19.1212 231.495 19.5692 232.327 20.4652C233.175 21.3452 233.599 22.5372 233.599 24.0412V31.4092H232.015V24.0412C232.015 22.9692 231.727 22.1372 231.151 21.5452C230.591 20.9532 229.791 20.6572 228.751 20.6572C227.599 20.6572 226.663 21.0252 225.943 21.7612C225.223 22.4812 224.863 23.6012 224.863 25.1212V31.4092H223.279V14.6092H224.863V21.2812C225.759 19.8412 227.103 19.1212 228.895 19.1212Z" fill="white"/>
</svg>
